Karumadikuttan (2000) Malayalam Untouched DVD5 - Rjaa

Directed by	Vinayan
Produced by	Samson J. Paanaadan
Screenplay by	J. Pallasserry
Story by	Vinayan
J. Pallasserry
Starring	Kalabhavan Mani
Nandini
Music by	Mohan Sithara
Cinematography	Azhagappan
Editing by	G. Murali
Studio	Surabhi Cinema
Distributed by	Surabhi Cinema
Release date(s)	2001
Country	India
Language	Malayalam


file info:

General
Complete name : KARUMADIKUTTAN (2000) DVD5 Team Rjaa
Format : MPEG-PS
File size : 936 MiB
Duration : 20mn 56s
Overall bit rate : 6 250 Kbps

Video
ID : 224 (0xE0)
Format : MPEG Video
Format version : Version 2
Format profile : Main@Main
Format settings, BVOP : Yes
Format settings, Matrix : Custom
Duration : 20mn 55s
Bit rate mode : Variable
Bit rate : 5 678 Kbps
Maximum bit rate : 9 000 Kbps
Width : 720 pixels
Height : 480 pixels
Display aspect ratio : 16:9
Frame rate : 29.970 fps
Standard : NTSC
Color space : YUV
Chroma subsampling : 4:2:0
Bit depth : 8 bits
Scan type : Interlaced
Scan order : Top Field First
Compression mode : Lossy
Bits/(Pixel*Frame) : 0.548
Stream size : 850 MiB (91%)

Audio
ID : 189 (0xBD)-128 (0x80)
Format : AC-3
Format/Info : Audio Coding 3
Mode extension : CM (complete main)
Muxing mode : DVD-Video
Duration : 20mn 56s
Bit rate mode : Constant
Bit rate : 448 Kbps
Channel(s) : 6 channels
Channel positions : Front: L C R, Side: L R, LFE
Sampling rate : 48.0 KHz
Bit depth : 16 bits
Compression mode : Lossy
Delay relative to video : -511ms
Stream size : 67.1 MiB (7%)


CD:
 
http://i.imgur.com/16go7.jpg


screenshots:
 
http://i.imgur.com/uRCQc.png
 
http://i.imgur.com/PfpcG.png
 
http://i.imgur.com/b7XPe.png
 
http://i.imgur.com/uUPLB.png
 
http://i.imgur.com/OIqKv.png
 
http://i.imgur.com/Pg9sx.png
 
http://i.imgur.com/CvvRd.png
 
http://i.imgur.com/VbMSw.png
 
http://i.imgur.com/hrvSl.png
 
http://i.imgur.com/hUO3U.png
 
http://i.imgur.com/g6Zhe.png
 
http://i.imgur.com/Ky7LV.png


!! Download - Seed - Enjoy !!


Expecting an 700mb Dvdrip from any other teams like XmS,DME  etc